# xmcd
#
# Track frame offsets: 
#        150
#        32308
#        63018
#        93044
#        112416
#        139311
#        162051
#        173226
#        194880
#        215057
#        232623
#        253878
#        282611
#        303335
#        321980
#
# Disc length: 4650 seconds
#
# Revision: 0
# Processed by: cddbd v1.5.2PL0 Copyright (c) Steve Scherf et al.
# Submitted via: ExactAudioCopy v0.99pb3
#
DISCID=db12280f
DTITLE=Santana - Greatest Hits CD2
DYEAR=2006
DGENRE=Blues
TTITLE0=Europa (Earth`s Cry Heaven`s Smile)
TTITLE1=La Danza
TTITLE2=Aqua Marine
TTITLE3=Peace On Earth...Mother Earth... Third Stone From The Sun
TTITLE4=En Aranjuez Con Tu Amor
TTITLE5=Luz Amor Y Vida
TTITLE6=Acapulco Sunrise
TTITLE7=Contigo (With You)
TTITLE8=Full Moon
TTITLE9=Love Is You
TTITLE10=I Love You Much Too Much
TTITLE11=Ballin`
TTITLE12=Revelations
TTITLE13=Oye Como Va
TTITLE14=Blues For Salvador
EXTD=
EXTT0=
EXTT1=
EXTT2=
EXTT3=
EXTT4=
EXTT5=
EXTT6=
EXTT7=
EXTT8=
EXTT9=
EXTT10=
EXTT11=
EXTT12=
EXTT13=
EXTT14=
PLAYORDER=
